<?xml version="1.0" standalone="no"?>
<!DOCTYPE svg PUBLIC "-//W3C//DTD SVG 20010904//EN"
 "http://www.w3.org/TR/2001/REC-SVG-20010904/DTD/svg10.dtd">
<svg version="1.0" xmlns="http://www.w3.org/2000/svg"
 width="621.000000pt" height="582.000000pt" viewBox="0 0 621.000000 582.000000"
 preserveAspectRatio="xMidYMid meet">

<g transform="translate(0.000000,582.000000) scale(0.100000,-0.100000)"
fill="#000000" stroke="none">
<path d="M2625 5744 c-330 -47 -537 -107 -785 -230 -659 -327 -1113 -912
-1268 -1634 -33 -153 -42 -251 -42 -469 0 -268 24 -436 91 -654 17 -55 29
-101 26 -103 -2 -2 -44 -24 -93 -48 -243 -119 -418 -329 -486 -585 -26 -99
-28 -300 -4 -416 23 -108 108 -280 183 -367 120 -140 292 -247 463 -288 104
-24 276 -27 380 -5 300 63 556 292 646 578 l18 57 362 0 362 0 75 70 c74 69
76 70 128 70 l54 -1 -176 -172 c-97 -95 -183 -186 -193 -204 -33 -65 -6 -165
56 -203 29 -17 50 -20 160 -20 l128 0 -169 -168 c-140 -138 -172 -174 -182
-209 -16 -56 1 -115 46 -160 l33 -33 148 0 149 0 -84 -84 -84 -84 21 -29 c38
-52 197 -202 225 -212 41 -16 87 -13 132 8 50 22 422 378 449 429 30 58 8 130
-50 169 -22 14 -47 16 -145 14 -65 -1 -119 0 -119 2 0 2 61 64 136 138 173
170 194 198 194 258 0 58 -29 108 -75 127 -23 9 -71 14 -142 14 l-108 0 235
235 c129 129 239 235 244 235 4 0 49 -43 98 -95 l90 -95 272 0 271 0 2 -157
c2 -211 -13 -198 225 -195 149 1 185 5 198 17 12 12 16 50 20 183 6 187 12
210 77 259 31 24 46 28 103 28 57 0 72 -4 102 -27 65 -50 78 -93 78 -265 0
-210 -14 -198 216 -194 221 3 217 1 222 124 l4 82 174 175 175 176 -245 243
c-135 134 -251 248 -258 252 -7 5 -850 9 -1873 10 l-1860 0 -52 64 c-70 85
-198 185 -297 234 -45 22 -88 42 -97 44 -37 12 -128 269 -166 472 -21 112 -24
460 -4 580 98 613 471 1123 1016 1390 148 73 291 123 450 156 98 21 137 24
345 24 251 0 335 -10 505 -59 186 -54 407 -159 555 -264 146 -104 313 -266
412 -400 33 -45 66 -81 72 -79 18 6 73 94 95 153 46 122 47 256 1 389 -28 82
-77 150 -157 220 -312 269 -673 438 -1097 511 -87 15 -538 28 -611 18z m-1583
-3534 c121 -37 223 -132 270 -250 17 -42 22 -77 22 -150 1 -116 -17 -176 -80
-260 -205 -273 -635 -205 -743 118 -67 197 29 426 216 521 90 45 211 53 315
21z"/>
<path d="M4757 5509 c-41 -24 -61 -132 -36 -196 6 -15 29 -51 51 -80 l40 -52
-17 -63 c-15 -53 -19 -130 -25 -503 -6 -371 -9 -449 -24 -500 -62 -217 -218
-381 -418 -439 -125 -36 -316 -14 -424 49 -72 42 -177 153 -278 293 -141 197
-276 319 -444 398 -243 115 -551 124 -811 24 -249 -96 -450 -290 -590 -567
-40 -80 -41 -82 -93 -97 -161 -48 -289 -178 -343 -347 -78 -247 -17 -494 166
-679 71 -71 172 -129 264 -151 65 -16 2074 -14 2144 2 89 20 172 69 254 149
77 75 81 78 146 88 244 41 468 157 654 340 138 137 246 310 311 498 65 187 68
214 73 599 2 205 8 361 14 376 12 30 30 41 111 68 77 26 141 72 185 132 43 56
45 57 173 34 47 -8 102 -15 123 -15 111 0 144 88 79 210 -11 19 -22 51 -26 71
-8 47 -76 111 -151 144 -42 19 -222 55 -272 55 -5 0 -36 21 -69 46 -84 66
-134 85 -234 91 -104 7 -190 -13 -271 -61 l-57 -34 -30 44 c-48 67 -128 100
-175 73z m668 -264 c52 -51 16 -145 -55 -145 -37 0 -90 47 -90 80 0 26 25 77
42 83 34 14 80 6 103 -18z m-2800 -1077 c62 -28 86 -127 47 -189 l-21 -33 39
-42 c119 -129 41 -327 -123 -311 -84 8 -138 64 -145 150 -5 66 10 118 50 162
l29 34 -23 31 c-17 24 -23 44 -22 81 1 97 85 155 169 117z m444 -2 c72 -38 88
-140 31 -201 l-20 -21 31 -30 c52 -49 72 -99 67 -166 -5 -62 -23 -96 -72 -132
-39 -30 -143 -30 -183 0 -73 55 -91 170 -40 257 16 27 35 51 43 54 11 4 9 14
-11 47 -14 24 -25 55 -25 70 0 98 97 164 179 122z m-805 -12 c9 -8 16 -18 16
-22 0 -4 -20 -41 -44 -82 l-43 -74 48 -43 c60 -55 83 -111 77 -188 -5 -62 -26
-97 -79 -133 -29 -21 -42 -23 -93 -19 -51 5 -63 10 -97 43 -45 44 -62 102 -47
167 9 41 166 315 200 349 22 22 42 23 62 2z m1250 -187 c15 -11 41 -47 57 -81
66 -140 14 -282 -108 -293 -67 -7 -115 15 -150 68 -24 37 -28 52 -28 113 1
172 118 271 229 193z m348 -473 c103 -35 173 -133 172 -239 -1 -67 -19 -112
-68 -163 -55 -59 -100 -77 -197 -77 -76 0 -90 3 -126 27 -122 80 -163 199
-109 313 59 127 195 185 328 139z m-1717 -24 c90 -43 120 -152 71 -257 l-24
-51 39 -43 c83 -90 77 -226 -13 -292 -33 -25 -122 -34 -172 -17 -44 14 -86 63
-86 100 0 29 49 130 138 285 56 98 60 111 37 155 -16 31 -62 50 -122 50 -59 0
-66 67 -10 90 29 13 93 4 142 -20z m816 0 c92 -48 105 -134 35 -240 l-26 -39
43 -19 c140 -62 168 -249 50 -339 -33 -25 -44 -28 -114 -28 -86 0 -115 14
-156 75 -54 79 -40 147 64 301 85 126 97 153 83 178 -13 26 -35 34 -110 40
-58 5 -65 8 -68 29 -10 66 104 90 199 42z m-1123 8 c20 -20 14 -48 -26 -112
-21 -34 -50 -82 -65 -108 l-27 -46 49 -36 c123 -91 153 -222 73 -318 -65 -77
-192 -78 -263 -1 -40 43 -51 70 -52 133 0 61 20 107 141 311 l50 84 -67 5
c-74 5 -101 20 -101 54 0 41 17 46 150 46 85 0 130 -4 138 -12z m703 -5 c11
-13 14 -79 14 -330 0 -300 -1 -315 -19 -329 -25 -18 -41 -18 -60 2 -14 13 -16
51 -16 258 0 133 -3 245 -6 249 -4 3 -21 -4 -38 -17 -94 -71 -102 -23 -17 92
33 44 65 82 73 85 26 11 56 7 69 -10z m798 4 c9 -11 17 -431 12 -629 -1 -38
-34 -55 -67 -33 l-24 15 0 245 c0 135 -4 245 -9 245 -5 0 -29 -12 -55 -26 -45
-25 -66 -25 -66 1 0 18 113 170 137 184 25 15 58 14 72 -2z m616 -607 c-33
-33 -65 -55 -98 -66 -93 -31 -209 2 -268 77 l-31 39 223 0 223 0 -49 -50z"/>
<path d="M2542 4066 c-10 -22 -8 -29 12 -53 l23 -27 17 27 c25 37 18 71 -15
75 -19 2 -28 -3 -37 -22z"/>
<path d="M2548 3863 c-46 -53 -51 -120 -13 -158 32 -33 60 -31 97 5 26 26 30
36 25 66 -7 44 -51 104 -76 104 -10 0 -25 -8 -33 -17z"/>
<path d="M2987 4083 c-14 -13 -6 -60 12 -77 18 -16 20 -16 35 6 20 29 21 64 0
72 -20 8 -39 8 -47 -1z"/>
<path d="M2976 3850 c-34 -41 -43 -93 -22 -125 33 -50 77 -55 116 -12 33 35
24 93 -23 145 -27 29 -40 28 -71 -8z"/>
<path d="M2112 3841 c-30 -53 -29 -105 3 -136 31 -32 59 -32 92 1 22 22 25 32
21 75 -10 95 -77 130 -116 60z"/>
<path d="M3401 3874 c-16 -21 -21 -41 -21 -89 0 -53 4 -65 25 -85 21 -20 30
-22 53 -14 39 14 55 54 47 116 -8 53 -39 98 -69 98 -8 0 -24 -12 -35 -26z"/>
<path d="M3710 3399 c-33 -13 -68 -47 -86 -81 -32 -62 -5 -138 66 -186 29 -20
44 -23 92 -20 72 5 126 44 148 106 13 37 13 47 0 84 -22 60 -73 98 -141 104
-30 2 -65 -1 -79 -7z"/>
<path d="M2096 3000 c-21 -39 -35 -77 -32 -85 3 -10 20 -15 46 -15 57 0 95 37
87 85 -6 39 -34 85 -51 85 -7 0 -29 -32 -50 -70z"/>
<path d="M2890 3060 c-63 -88 -12 -185 83 -159 61 16 84 78 52 139 -30 59
-100 69 -135 20z"/>
<path d="M1653 3077 c-30 -44 -37 -80 -24 -120 13 -40 58 -67 97 -59 31 6 64
47 64 81 0 48 -63 130 -100 131 -8 0 -25 -15 -37 -33z"/>
</g>
</svg>
